
<svg width="78" height="10" viewBox="0 0 78 10" fill="none" xmlns="http://www.w3.org/2000/svg">
<path d="M5.82955 2.45455C5.77841 2.02273 5.57102 1.6875 5.20739 1.44886C4.84375 1.21023 4.39773 1.09091 3.86932 1.09091C3.48295 1.09091 3.14489 1.15341 2.85511 1.27841C2.56818 1.40341 2.34375 1.57528 2.18182 1.79403C2.02273 2.01278 1.94318 2.26136 1.94318 2.53977C1.94318 2.77273 1.99858 2.97301 2.10938 3.14062C2.22301 3.3054 2.3679 3.44318 2.54403 3.55398C2.72017 3.66193 2.90483 3.75142 3.09801 3.82244C3.29119 3.89062 3.46875 3.94602 3.63068 3.98864L4.51705 4.22727C4.74432 4.28693 4.99716 4.36932 5.27557 4.47443C5.55682 4.57955 5.82528 4.72301 6.08097 4.90483C6.33949 5.08381 6.55256 5.31392 6.72017 5.59517C6.88778 5.87642 6.97159 6.22159 6.97159 6.63068C6.97159 7.10227 6.84801 7.52841 6.60085 7.90909C6.35653 8.28977 5.99858 8.59233 5.52699 8.81676C5.05824 9.04119 4.48864 9.15341 3.81818 9.15341C3.19318 9.15341 2.65199 9.05256 2.1946 8.85085C1.74006 8.64915 1.3821 8.3679 1.12074 8.0071C0.862216 7.64631 0.715909 7.22727 0.681818 6.75H1.77273C1.80114 7.07955 1.91193 7.35227 2.10511 7.56818C2.30114 7.78125 2.5483 7.94034 2.84659 8.04545C3.14773 8.14773 3.47159 8.19886 3.81818 8.19886C4.22159 8.19886 4.58381 8.13352 4.90483 8.00284C5.22585 7.86932 5.48011 7.68466 5.66761 7.44886C5.85511 7.21023 5.94886 6.93182 5.94886 6.61364C5.94886 6.32386 5.8679 6.08807 5.70597 5.90625C5.54403 5.72443 5.33097 5.5767 5.06676 5.46307C4.80256 5.34943 4.51705 5.25 4.21023 5.16477L3.13636 4.85795C2.45455 4.66193 1.91477 4.3821 1.51705 4.01847C1.11932 3.65483 0.920455 3.17898 0.920455 2.59091C0.920455 2.10227 1.05256 1.67614 1.31676 1.3125C1.58381 0.946023 1.94176 0.661932 2.39062 0.460227C2.84233 0.255682 3.34659 0.153409 3.90341 0.153409C4.46591 0.153409 4.96591 0.254261 5.40341 0.455966C5.84091 0.654829 6.1875 0.927556 6.44318 1.27415C6.7017 1.62074 6.83807 2.0142 6.85227 2.45455H5.82955ZM14.6751 3C14.5813 2.71307 14.4577 2.45597 14.3043 2.22869C14.1538 1.99858 13.9734 1.80256 13.7631 1.64062C13.5558 1.47869 13.32 1.35511 13.0558 1.26989C12.7915 1.18466 12.5018 1.14205 12.1864 1.14205C11.6694 1.14205 11.1992 1.27557 10.7759 1.54261C10.3526 1.80966 10.016 2.20312 9.76598 2.72301C9.51598 3.2429 9.39098 3.88068 9.39098 4.63636C9.39098 5.39205 9.5174 6.02983 9.77024 6.54972C10.0231 7.0696 10.3654 7.46307 10.7972 7.73011C11.229 7.99716 11.7148 8.13068 12.2546 8.13068C12.7546 8.13068 13.195 8.02415 13.5756 7.81108C13.9592 7.59517 14.2575 7.29119 14.4705 6.89915C14.6864 6.50426 14.7944 6.03977 14.7944 5.50568L15.1183 5.57386H12.4933V4.63636H15.8171V5.57386C15.8171 6.29261 15.6637 6.91761 15.3569 7.44886C15.0529 7.98011 14.6325 8.39205 14.0955 8.68466C13.5614 8.97443 12.9478 9.11932 12.2546 9.11932C11.4819 9.11932 10.8029 8.9375 10.2177 8.57386C9.6353 8.21023 9.18075 7.69318 8.85405 7.02273C8.53018 6.35227 8.36825 5.55682 8.36825 4.63636C8.36825 3.94602 8.46058 3.32528 8.64524 2.77415C8.83274 2.22017 9.09695 1.74858 9.43786 1.35938C9.77876 0.97017 10.1822 0.671875 10.6481 0.464489C11.114 0.257102 11.6268 0.153409 12.1864 0.153409C12.6467 0.153409 13.0756 0.223011 13.4734 0.362216C13.8739 0.498579 14.2305 0.693181 14.543 0.946022C14.8583 1.19602 15.1211 1.49574 15.3313 1.84517C15.5415 2.19176 15.6864 2.5767 15.766 3H14.6751Z" fill="#0081F8"/>
<path d="M17.6271 9V0.272727H18.6839V4.15909H23.3374V0.272727H24.3942V9H23.3374V5.09659H18.6839V9H17.6271ZM29.1179 9.13636C28.4872 9.13636 27.9432 8.99716 27.4858 8.71875C27.0312 8.4375 26.6804 8.04545 26.4332 7.54261C26.1889 7.03693 26.0668 6.44886 26.0668 5.77841C26.0668 5.10795 26.1889 4.51705 26.4332 4.00568C26.6804 3.49148 27.0241 3.09091 27.4645 2.80398C27.9077 2.5142 28.4247 2.36932 29.0156 2.36932C29.3565 2.36932 29.6932 2.42614 30.0256 2.53977C30.358 2.65341 30.6605 2.83807 30.9332 3.09375C31.206 3.34659 31.4233 3.68182 31.5852 4.09943C31.7472 4.51705 31.8281 5.03125 31.8281 5.64205V6.06818H26.7827V5.19886H30.8054C30.8054 4.82955 30.7315 4.5 30.5838 4.21023C30.4389 3.92045 30.2315 3.69176 29.9616 3.52415C29.6946 3.35653 29.3793 3.27273 29.0156 3.27273C28.6151 3.27273 28.2685 3.37216 27.9759 3.57102C27.6861 3.76705 27.4631 4.02273 27.3068 4.33807C27.1506 4.65341 27.0724 4.99148 27.0724 5.35227V5.93182C27.0724 6.42614 27.1577 6.84517 27.3281 7.18892C27.5014 7.52983 27.7415 7.78977 28.0483 7.96875C28.3551 8.14489 28.7116 8.23295 29.1179 8.23295C29.3821 8.23295 29.6207 8.19602 29.8338 8.12216C30.0497 8.04545 30.2358 7.93182 30.392 7.78125C30.5483 7.62784 30.669 7.4375 30.7543 7.21023L31.7259 7.48295C31.6236 7.8125 31.4517 8.10227 31.2102 8.35227C30.9688 8.59943 30.6705 8.79261 30.3153 8.93182C29.9602 9.06818 29.5611 9.13636 29.1179 9.13636ZM35.2841 9.15341C34.8693 9.15341 34.4929 9.07528 34.1548 8.91903C33.8168 8.75994 33.5483 8.53125 33.3494 8.23295C33.1506 7.93182 33.0511 7.56818 33.0511 7.14205C33.0511 6.76705 33.125 6.46307 33.2727 6.23011C33.4205 5.99432 33.6179 5.80966 33.8651 5.67614C34.1122 5.54261 34.3849 5.44318 34.6832 5.37784C34.9844 5.30966 35.2869 5.25568 35.5909 5.21591C35.9886 5.16477 36.3111 5.12642 36.5582 5.10085C36.8082 5.07244 36.9901 5.02557 37.1037 4.96023C37.2202 4.89489 37.2784 4.78125 37.2784 4.61932V4.58523C37.2784 4.16477 37.1634 3.83807 36.9332 3.60511C36.706 3.37216 36.3608 3.25568 35.8977 3.25568C35.4176 3.25568 35.0412 3.3608 34.7685 3.57102C34.4957 3.78125 34.304 4.00568 34.1932 4.24432L33.2386 3.90341C33.4091 3.50568 33.6364 3.19602 33.9205 2.97443C34.2074 2.75 34.5199 2.59375 34.858 2.50568C35.1989 2.41477 35.5341 2.36932 35.8636 2.36932C36.0739 2.36932 36.3153 2.39489 36.5881 2.44602C36.8636 2.49432 37.1293 2.59517 37.3849 2.74858C37.6435 2.90199 37.858 3.13352 38.0284 3.44318C38.1989 3.75284 38.2841 4.16761 38.2841 4.6875V9H37.2784V8.11364H37.2273C37.1591 8.25568 37.0455 8.40767 36.8864 8.5696C36.7273 8.73153 36.5156 8.86932 36.2514 8.98295C35.9872 9.09659 35.6648 9.15341 35.2841 9.15341ZM35.4375 8.25C35.8352 8.25 36.1705 8.17188 36.4432 8.01562C36.7188 7.85938 36.9261 7.65767 37.0653 7.41051C37.2074 7.16335 37.2784 6.90341 37.2784 6.63068V5.71023C37.2358 5.76136 37.142 5.80824 36.9972 5.85085C36.8551 5.89062 36.6903 5.92614 36.5028 5.95739C36.3182 5.9858 36.1378 6.01136 35.9616 6.03409C35.7884 6.05398 35.6477 6.07102 35.5398 6.08523C35.2784 6.11932 35.0341 6.17472 34.8068 6.25142C34.5824 6.32528 34.4006 6.4375 34.2614 6.58807C34.125 6.7358 34.0568 6.9375 34.0568 7.19318C34.0568 7.54261 34.1861 7.80682 34.4446 7.9858C34.706 8.16193 35.0369 8.25 35.4375 8.25ZM41.1254 0.272727V9H40.1197V0.272727H41.1254ZM45.8139 2.45455V3.30682H42.4219V2.45455H45.8139ZM43.4105 0.886364H44.4162V7.125C44.4162 7.40909 44.4574 7.62216 44.5398 7.7642C44.625 7.90341 44.733 7.99716 44.8636 8.04545C44.9972 8.09091 45.1378 8.11364 45.2855 8.11364C45.3963 8.11364 45.4872 8.10795 45.5582 8.09659C45.6293 8.08239 45.6861 8.07102 45.7287 8.0625L45.9332 8.96591C45.8651 8.99148 45.7699 9.01705 45.6477 9.04261C45.5256 9.07102 45.3707 9.08523 45.1832 9.08523C44.8991 9.08523 44.6207 9.02415 44.348 8.90199C44.0781 8.77983 43.8537 8.59375 43.6747 8.34375C43.4986 8.09375 43.4105 7.77841 43.4105 7.39773V0.886364ZM48.473 5.0625V9H47.4673V0.272727H48.473V3.47727H48.5582C48.7116 3.1392 48.9418 2.87074 49.2486 2.67188C49.5582 2.47017 49.9702 2.36932 50.4844 2.36932C50.9304 2.36932 51.321 2.45881 51.6562 2.63778C51.9915 2.81392 52.2514 3.08523 52.4361 3.4517C52.6236 3.81534 52.7173 4.27841 52.7173 4.84091V9H51.7116V4.90909C51.7116 4.3892 51.5767 3.98722 51.3068 3.70312C51.0398 3.41619 50.669 3.27273 50.1946 3.27273C49.8651 3.27273 49.5696 3.34233 49.3082 3.48153C49.0497 3.62074 48.8452 3.82386 48.6946 4.09091C48.5469 4.35795 48.473 4.68182 48.473 5.0625ZM57.2163 9.13636C56.6026 9.13636 56.0742 8.99148 55.631 8.7017C55.1879 8.41193 54.8469 8.01278 54.6083 7.50426C54.3697 6.99574 54.2504 6.41477 54.2504 5.76136C54.2504 5.09659 54.3725 4.50994 54.6168 4.00142C54.864 3.49006 55.2077 3.09091 55.6481 2.80398C56.0913 2.5142 56.6083 2.36932 57.1992 2.36932C57.6594 2.36932 58.0742 2.45455 58.4435 2.625C58.8129 2.79545 59.1154 3.03409 59.3512 3.34091C59.587 3.64773 59.7333 4.00568 59.7901 4.41477H58.7844C58.7077 4.11648 58.5373 3.85227 58.2731 3.62216C58.0117 3.3892 57.6594 3.27273 57.2163 3.27273C56.8242 3.27273 56.4805 3.375 56.185 3.57955C55.8924 3.78125 55.6637 4.06676 55.4989 4.43608C55.337 4.80256 55.256 5.23295 55.256 5.72727C55.256 6.23295 55.3356 6.6733 55.4947 7.0483C55.6566 7.4233 55.8839 7.71449 56.1765 7.92188C56.4719 8.12926 56.8185 8.23295 57.2163 8.23295C57.4776 8.23295 57.7148 8.1875 57.9279 8.09659C58.141 8.00568 58.3214 7.875 58.4691 7.70455C58.6168 7.53409 58.7219 7.32955 58.7844 7.09091H59.7901C59.7333 7.47727 59.5927 7.82528 59.3683 8.13494C59.1467 8.44176 58.8526 8.68608 58.4862 8.8679C58.1225 9.04688 57.6992 9.13636 57.2163 9.13636ZM63.1864 9.15341C62.7717 9.15341 62.3952 9.07528 62.0572 8.91903C61.7191 8.75994 61.4506 8.53125 61.2518 8.23295C61.0529 7.93182 60.9535 7.56818 60.9535 7.14205C60.9535 6.76705 61.0273 6.46307 61.1751 6.23011C61.3228 5.99432 61.5202 5.80966 61.7674 5.67614C62.0146 5.54261 62.2873 5.44318 62.5856 5.37784C62.8867 5.30966 63.1893 5.25568 63.4933 5.21591C63.891 5.16477 64.2134 5.12642 64.4606 5.10085C64.7106 5.07244 64.8924 5.02557 65.006 4.96023C65.1225 4.89489 65.1808 4.78125 65.1808 4.61932V4.58523C65.1808 4.16477 65.0657 3.83807 64.8356 3.60511C64.6083 3.37216 64.2631 3.25568 63.8001 3.25568C63.32 3.25568 62.9435 3.3608 62.6708 3.57102C62.3981 3.78125 62.2063 4.00568 62.0955 4.24432L61.141 3.90341C61.3114 3.50568 61.5387 3.19602 61.8228 2.97443C62.1097 2.75 62.4222 2.59375 62.7603 2.50568C63.1012 2.41477 63.4364 2.36932 63.766 2.36932C63.9762 2.36932 64.2177 2.39489 64.4904 2.44602C64.766 2.49432 65.0316 2.59517 65.2873 2.74858C65.5458 2.90199 65.7603 3.13352 65.9308 3.44318C66.1012 3.75284 66.1864 4.16761 66.1864 4.6875V9H65.1808V8.11364H65.1296C65.0614 8.25568 64.9478 8.40767 64.7887 8.5696C64.6296 8.73153 64.418 8.86932 64.1538 8.98295C63.8896 9.09659 63.5671 9.15341 63.1864 9.15341ZM63.3398 8.25C63.7376 8.25 64.0728 8.17188 64.3455 8.01562C64.6211 7.85938 64.8285 7.65767 64.9677 7.41051C65.1097 7.16335 65.1808 6.90341 65.1808 6.63068V5.71023C65.1381 5.76136 65.0444 5.80824 64.8995 5.85085C64.7575 5.89062 64.5927 5.92614 64.4052 5.95739C64.2205 5.9858 64.0401 6.01136 63.864 6.03409C63.6907 6.05398 63.5501 6.07102 63.4421 6.08523C63.1808 6.11932 62.9364 6.17472 62.7092 6.25142C62.4847 6.32528 62.3029 6.4375 62.1637 6.58807C62.0273 6.7358 61.9592 6.9375 61.9592 7.19318C61.9592 7.54261 62.0884 7.80682 62.3469 7.9858C62.6083 8.16193 62.9393 8.25 63.3398 8.25ZM68.022 9V2.45455H68.9936V3.44318H69.0618C69.1811 3.11932 69.397 2.85653 69.7095 2.65483C70.022 2.45312 70.3743 2.35227 70.7663 2.35227C70.8402 2.35227 70.9325 2.35369 71.0433 2.35653C71.1541 2.35937 71.2379 2.36364 71.2947 2.36932V3.39205C71.2607 3.38352 71.1825 3.37074 71.0604 3.35369C70.9411 3.33381 70.8146 3.32386 70.6811 3.32386C70.3629 3.32386 70.0788 3.39062 69.8288 3.52415C69.5817 3.65483 69.3857 3.83665 69.2408 4.0696C69.0987 4.29972 69.0277 4.5625 69.0277 4.85795V9H68.022ZM75.032 9.13636C74.4013 9.13636 73.8572 8.99716 73.3999 8.71875C72.9453 8.4375 72.5945 8.04545 72.3473 7.54261C72.103 7.03693 71.9808 6.44886 71.9808 5.77841C71.9808 5.10795 72.103 4.51705 72.3473 4.00568C72.5945 3.49148 72.9382 3.09091 73.3786 2.80398C73.8217 2.5142 74.3388 2.36932 74.9297 2.36932C75.2706 2.36932 75.6072 2.42614 75.9396 2.53977C76.272 2.65341 76.5746 2.83807 76.8473 3.09375C77.12 3.34659 77.3374 3.68182 77.4993 4.09943C77.6612 4.51705 77.7422 5.03125 77.7422 5.64205V6.06818H72.6967V5.19886H76.7195C76.7195 4.82955 76.6456 4.5 76.4979 4.21023C76.353 3.92045 76.1456 3.69176 75.8757 3.52415C75.6087 3.35653 75.2933 3.27273 74.9297 3.27273C74.5291 3.27273 74.1825 3.37216 73.8899 3.57102C73.6001 3.76705 73.3771 4.02273 73.2209 4.33807C73.0646 4.65341 72.9865 4.99148 72.9865 5.35227V5.93182C72.9865 6.42614 73.0717 6.84517 73.2422 7.18892C73.4155 7.52983 73.6555 7.78977 73.9624 7.96875C74.2692 8.14489 74.6257 8.23295 75.032 8.23295C75.2962 8.23295 75.5348 8.19602 75.7479 8.12216C75.9638 8.04545 76.1499 7.93182 76.3061 7.78125C76.4624 7.62784 76.5831 7.4375 76.6683 7.21023L77.6399 7.48295C77.5376 7.8125 77.3658 8.10227 77.1243 8.35227C76.8828 8.59943 76.5845 8.79261 76.2294 8.93182C75.8743 9.06818 75.4751 9.13636 75.032 9.13636Z" fill="#00217D"/>
</svg>